<?xml version="1.0" standalone="no"?><!DOCTYPE svg PUBLIC "-//W3C//DTD SVG 1.1//EN" "http://www.w3.org/Graphics/SVG/1.1/DTD/svg11.dtd"><svg t="1510886179226" class="icon" style="" viewBox="0 0 1024 1024" version="1.1" xmlns="http://www.w3.org/2000/svg" p-id="4750" xmlns:xlink="http://www.w3.org/1999/xlink" width="200" height="200"><defs><style type="text/css"></style></defs><path d="M512 65.292025c-246.738357 0-446.707975 199.969618-446.707975 446.707975s199.969618 446.707975 446.707975 446.707975 446.707975-199.969618 446.707975-446.707975S758.738357 65.292025 512 65.292025z m211.124525 328.506896L470.655207 680.142315c-7.061363 7.163702-16.476514 10.23386-25.686988 9.722166-9.210474 0.511693-18.625625-2.558465-25.686988-9.722166L300.875475 565.21607c-13.201679-13.406356-13.201679-35.204477 0-48.713172 13.201679-13.406356 34.692784-13.406356 47.996802 0l96.095942 90.262643 230.261843-261.679792c13.201679-13.406356 34.692784-13.406356 47.996802 0 13.09934 13.406356 13.09934 35.204477-0.102339 48.713172z" p-id="4751"></path></svg>